<?xml version="1.0" encoding="UTF-8" standalone="no"?>
<!DOCTYPE svg PUBLIC "-//W3C//DTD SVG 1.0//EN"
"http://www.w3.org/TR/2001/REC-SVG-20010904/DTD/svg10.dtd">
<!-- Created with Inkscape ("http://www.inkscape.org/") -->
<svg
   xmlns="http://www.w3.org/2000/svg"
   xmlns:xlink="http://www.w3.org/1999/xlink"
   version="1.0"
   x="0"
   y="0"
   width="744.100037"
   height="744.100037"
   id="svg1">
  <defs
     id="defs3" />
  <g
     transform="matrix(1.200524,0.000000,0.000000,1.146943,-26.11689,-299.7967)"
     style="font-size:12;"
     id="g579">
    <path
       d="M 461.078 388.243 C 456.178 378.873 457.101 370.257 457.436 359.708 C 458.584 339.107 460.842 319.167 464.646 298.885 C 474.144 272.767 482.014 261.964 508.287 275.638 C 523.006 299.853 527.161 321.889 529.359 350.085 C 529.149 363.665 525.199 382.489 531.152 394.526 C 539.967 390.113 551.7 387.405 561.272 382.228 C 578.669 368.403 590.951 352.755 604.158 334.941 C 627.779 312.786 636.996 324.747 640.472 353.565 C 637.208 381.521 630.249 401.969 615.115 425.705 C 602.414 439.511 586.286 451.257 576.585 467.24 C 576.069 477.067 580.828 485.226 585.212 493.875 C 594.609 508.673 604.585 522.396 612.176 538.22 C 616.298 562.12 612.801 573.822 595.618 590.929 C 574.508 601.189 556.965 604.891 533.504 604.162 C 516.491 599.779 502.544 592.95 487.078 584.761 C 477.393 581.218 471.805 578.913 463.946 586.293 C 458.531 599.917 463.7 608.732 470.363 621.222 C 482.303 638.054 494.193 654.16 503.679 672.511 C 508.656 687.672 510.681 701.346 511.105 717.277 C 510.785 730.399 510.025 743.476 510.091 756.602 C 510.125 771.775 509.864 786.793 508.608 801.913 C 506.206 817.164 503.104 831.898 498.457 846.613 C 487.118 867.253 478.957 874.754 455.396 870.436 C 438.86 853.461 437.343 839.162 437.203 815.675 C 437.993 798.463 438.696 781.368 438.165 764.145 C 437.084 751.413 435.331 739.136 432.41 726.697 C 427.38 712.787 420.694 700.457 412.98 687.845 C 408.438 681.486 391.446 665.212 397.157 670.546 C 392.208 683.716 391.861 696.726 391.427 710.69 C 391.917 728.855 392.477 747.007 392.662 765.181 C 392.651 778.68 392.517 792.175 392.365 805.674 C 392.19 819.822 391.218 833.124 388.569 847.037 C 382.518 866.652 375.628 878.248 359.549 891.059 C 334.461 898.101 322.645 893.432 304.981 874.53 C 296.058 852.678 295.879 836.892 300.473 813.797 C 304.89 798.37 309.911 783.131 314.277 767.692 C 316.748 755.192 317.479 744.205 316.381 731.516 C 314.58 717.9 312.868 704.362 311.829 690.663 C 311.023 676.461 309.457 666.572 301.898 654.424 C 290.391 644.968 281.933 644.145 267.17 645.033 C 252.111 648.298 237.374 652.757 222.316 656.037 C 208.646 657.241 194.815 656.122 181.402 658.63 C 172.503 665.052 172.657 674.089 171.197 684.614 C 169.448 706.375 167.374 727.841 164.053 749.426 C 160.594 769.568 156.788 789.529 152.278 809.462 C 149.55 822.7 147.818 835.694 146.693 849.161 C 145.659 864.636 143.809 878.295 138.698 892.948 C 118.64 914.296 107.512 906.368 94.7646 882.514 C 90.2172 856.687 91.4135 834.705 96.3136 808.963 C 101.197 790.326 106.709 771.855 111.243 753.135 C 113.045 741.399 113.334 730.475 112.669 718.626 C 111.636 705.084 111.3 691.874 111.79 678.297 C 112.497 665.188 113.251 652.906 111.072 639.946 C 106.167 625.169 99.7924 611.273 93.1956 597.174 C 87.0138 583.4 82.8569 569.022 76.9896 555.257 C 88.3675 560.629 84.363 559.066 79.4377 575.868 C 74.5483 596.53 70.3494 617.329 65.8461 638.078 C 61.1212 657.031 58.8209 671.678 43.0065 682.954 C 23.6101 669.889 27.3825 656.204 31.574 633.156 C 35.7352 615.415 40.1581 597.74 44.292 579.992 C 46.7891 566.989 48.3329 554.003 49.8278 540.851 C 51.2961 527.971 52.257 515.099 53.2274 502.174 C 55.2258 485.927 58.6192 470.984 63.7445 455.434 C 72.1779 436.106 80.9394 421.562 96.2293 406.984 C 113.74 397.271 128.069 394.437 148.057 394.23 C 165.98 396.284 181.662 399.822 198.401 406.574 C 216.03 417.219 230.348 430.115 245.442 444.091 C 258.609 455.583 270.309 465.34 286.742 471.453 C 299.556 473.084 310.815 471.642 323.532 469.484 C 337.158 467.235 350.801 465.534 364.526 464.01 C 378.485 462.326 390.696 460.2 403.688 454.772 C 418.102 444.987 426.341 435.073 434.825 419.896 C 443.221 402.714 452.392 386.422 462.341 370.098 C 464.801 365.574 467.016 361.139 468.926 356.36 L 485.917 364.564 C 483.402 370.443 480.608 375.943 477.462 381.512 C 467.612 397.336 458.801 413.141 450.67 429.919 C 439.978 448.816 429.22 461.117 411.267 473.363 C 396.226 479.772 382.402 482.673 366.208 484.64 C 352.892 486.126 339.652 487.778 326.433 489.964 C 310.993 492.575 297.737 493.715 282.21 491.44 C 263.142 483.914 249.439 473.061 234.091 459.537 C 220.374 446.941 207.328 435.005 191.367 425.381 C 176.766 419.521 162.955 416.482 147.332 414.664 C 131.917 414.779 120.329 416.422 106.712 423.716 C 94.1329 435.421 87.4563 447.431 80.7245 463.196 C 76.3338 476.792 73.4947 489.857 71.79 504.039 C 70.8248 517.27 69.8563 530.444 68.364 543.629 C 66.7523 557.625 64.9472 571.374 62.1343 585.184 C 57.8395 602.753 53.3186 620.257 49.2173 637.872 C 47.1571 649.836 51.5128 663.629 40.3839 661.507 C 37.2748 662.981 46.2901 640.887 48.3741 632.937 C 53.0672 612.103 57.3355 591.178 61.9774 570.333 C 67.9444 548.309 70.6363 531.907 93.3141 544.529 C 98.8228 558.963 103.094 573.517 109.41 587.701 C 116.651 603.156 123.596 618.352 129.001 634.544 C 131.527 649.812 131.198 663.961 130.391 679.388 C 129.96 692.047 130.354 704.316 131.36 716.938 C 132.152 731.153 131.575 744.147 129.186 758.191 C 124.306 776.887 118.544 795.334 113.53 814 C 109.433 835.248 107.841 853.658 111.627 875.006 C 114.83 881.822 115.886 889.619 122.214 883.268 C 126.391 871.499 127.277 859.935 128.096 847.485 C 129.339 832.752 131.346 818.633 134.546 804.192 C 139.23 784.793 143.069 765.384 146.504 745.726 C 149.736 724.676 151.619 703.796 153.112 682.56 C 155.803 661.516 158.276 650.008 176.554 638.488 C 190.865 636.091 205.026 636.863 219.494 635.647 C 234.785 632.389 249.767 627.967 265.061 624.719 C 287.084 623.517 298.937 626.504 315.746 640.906 C 325.648 657.176 329.232 670.298 330.415 689.257 C 331.423 702.537 333.13 715.657 334.884 728.856 C 336.18 744.511 335.223 758.155 332.053 773.537 C 327.6 788.885 322.555 804.048 318.062 819.388 C 314.748 835.294 313.722 846.908 319.519 862.171 C 329.415 873.426 336.244 876.654 350.926 872.947 C 362.333 864.12 366.43 855.638 370.54 841.882 C 372.846 829.615 373.506 817.883 373.647 805.411 C 373.822 791.999 374.053 778.588 374.204 765.176 C 374.224 746.99 373.785 728.836 373.369 710.656 C 373.981 689.234 375.072 672.222 385.762 653.637 C 408.015 646.858 414.624 657.487 427.773 675.827 C 436.737 690.337 444.326 704.545 450.246 720.547 C 453.578 734.675 455.537 748.526 456.637 763 C 456.994 780.824 456.187 798.526 455.355 816.333 C 455.432 829.254 454.599 840.834 462.757 851.309 C 473.512 854.489 476.497 847.423 481.385 838.529 C 485.41 825.634 488.095 812.603 490.227 799.26 C 491.41 785.219 491.581 771.274 491.462 757.183 C 491.386 743.872 492.091 730.62 492.413 717.314 C 492.111 704.665 490.839 693.608 487.141 681.499 C 478.498 663.96 467.133 648.775 455.798 632.87 C 443.689 610.045 439.523 596.214 450.152 572.223 C 466.064 559.127 475.356 558.63 494.584 565.826 C 508.21 573.232 520.588 579.921 535.569 584.107 C 554.408 584.966 568.626 582.164 585.578 573.857 C 595.1 564.738 597.062 559.177 595.181 546.127 C 588.325 531.341 578.516 518.71 569.654 505.036 C 560.909 488.141 556.954 476.821 559.893 457.938 C 571.362 440.546 587.408 428.231 601.599 412.955 C 614.166 393.467 619.959 376.766 622.431 353.698 C 621.334 339.283 628.158 337.871 617.685 348.083 C 602.945 367.413 589.138 384.392 570.133 399.651 C 550.725 410.512 538.419 417.325 517.667 409.246 C 508.661 389.505 510.934 372.393 511.619 350.745 C 510.133 328.831 507.749 310.475 496.563 291.409 C 486.639 283.737 485.513 294.663 482.057 303.847 C 478.489 322.682 476.563 341.014 476.073 360.178 C 476.098 364.911 479.617 379.639 474.25 371.691 L 461.078 388.243 z "
       style="fill-opacity:0.75;stroke-width:3pt;"
       id="path569" />
    <path
       d="M 211.602 651.932 C 209.288 664.685 207.441 677.411 206.102 690.386 C 204.515 713.784 203.822 737.072 203.684 760.522 C 203.932 781.14 204.159 801.728 205.542 822.298 C 207.882 838.508 211.941 853.763 216.375 869.51 C 218.876 893.197 216.011 904.707 191.22 906.287 C 171.436 893.985 164.005 880.31 156.12 858.536 C 152.274 840.325 150.821 823.197 150.773 804.604 C 150.736 796.11 150.414 787.677 149.926 779.197 L 168.569 777.794 C 169.052 786.822 169.329 795.792 169.298 804.832 C 169.178 821.223 170.121 836.277 173.402 852.356 C 178.427 866.53 182.858 877.29 195.455 885.924 C 201.939 888.261 199.124 880.482 198.595 875.153 C 193.967 858.212 189.838 841.809 187.431 824.388 C 186.106 803.124 186.123 781.87 186.006 760.562 C 186.085 736.482 186.812 712.575 188.325 688.542 C 189.035 679.973 191.936 650.572 191.804 651.932 L 211.602 651.932 z "
       style="fill-opacity:0.75;stroke-width:3pt;"
       id="path570" />
    <path
       d="M 503.925 423.921 C 503.118 434.097 503.249 444.349 503.131 454.551 L 484.921 454.551 C 484.803 444.349 484.933 434.097 484.127 423.921 L 503.925 423.921 z "
       style="fill-opacity:0.75;stroke-width:3pt;"
       id="path573" />
    <path
       d="M 541.927 432.69 C 540.816 441.799 539.24 450.868 537.92 459.954 C 537.318 464.817 536.779 469.679 536.291 474.554 L 518.159 472.409 C 518.631 467.304 519.139 462.206 519.684 457.108 C 520.548 449.734 522.406 438.395 522.129 432.69 L 541.927 432.69 z "
       style="fill-opacity:0.75;stroke-width:3pt;"
       id="path577" />
    <path
       d="M 449.49 491.544 C 464.936 488.21 470.256 496.212 482.017 506.963 C 497.325 520.603 512.053 532.764 530.193 542.352 C 540.257 544.372 545.398 545.73 551.938 537.298 L 567.281 548.835 C 552.776 564.567 544.528 565.817 523.736 561.1 C 504.15 550.47 487.747 537.47 470.793 523.018 C 461.264 514.981 450.189 513.25 462.662 508.095 L 449.49 491.544 z "
       style="fill-opacity:0.75;stroke-width:3pt;"
       id="path578" />
  </g>
</svg>
